<mxfile host="Electron" agent="Mozilla/5.0 (Windows NT 10.0; Win64; x64) AppleWebKit/537.36 (KHTML, like Gecko) draw.io/23.1.5 Chrome/120.0.6099.109 Electron/28.1.0 Safari/537.36" modified="2025-10-30T06:06:41.630Z" etag="MtTOdFicp6oF0583ODwm" version="23.1.5" type="device">
  <diagram name="Страница — 1" id="VemFxhsq8VWPLF5NFihN">
    <mxGraphModel dx="2261" dy="844" grid="1" gridSize="10" guides="1" tooltips="1" connect="1" arrows="1" fold="1" page="1" pageScale="1" pageWidth="827" pageHeight="1169" math="0" shadow="0">
      <root>
        <mxCell id="0" />
        <mxCell id="1" parent="0" />
        <mxCell id="x9gaep2M6UIOER8qvIOI-1" value="&lt;div&gt;Администратор&lt;/div&gt;" style="shape=umlActor;verticalLabelPosition=bottom;verticalAlign=top;html=1;outlineConnect=0;" parent="1" vertex="1">
          <mxGeometry x="-540" y="350" width="30" height="60" as="geometry" />
        </mxCell>
        <mxCell id="x9gaep2M6UIOER8qvIOI-5" value="&lt;div&gt;Авторизованный пользователь&lt;/div&gt;" style="shape=umlActor;verticalLabelPosition=bottom;verticalAlign=top;html=1;outlineConnect=0;" parent="1" vertex="1">
          <mxGeometry x="-413" y="630" width="30" height="60" as="geometry" />
        </mxCell>
        <mxCell id="x9gaep2M6UIOER8qvIOI-9" value="" style="endArrow=none;html=1;rounded=0;entryX=0.76;entryY=1;entryDx=0;entryDy=0;entryPerimeter=0;" parent="1" target="x9gaep2M6UIOER8qvIOI-10" edge="1">
          <mxGeometry width="50" height="50" relative="1" as="geometry">
            <mxPoint x="-550" y="370" as="sourcePoint" />
            <mxPoint x="170" y="120" as="targetPoint" />
          </mxGeometry>
        </mxCell>
        <mxCell id="x9gaep2M6UIOER8qvIOI-10" value="Редактирование категории имущества" style="ellipse;whiteSpace=wrap;html=1;" parent="1" vertex="1">
          <mxGeometry x="-655" y="270" width="100" height="60" as="geometry" />
        </mxCell>
        <mxCell id="x9gaep2M6UIOER8qvIOI-27" value="" style="endArrow=none;html=1;rounded=0;" parent="1" source="x9gaep2M6UIOER8qvIOI-28" edge="1">
          <mxGeometry width="50" height="50" relative="1" as="geometry">
            <mxPoint x="330" y="260" as="sourcePoint" />
            <mxPoint x="-525" y="440" as="targetPoint" />
          </mxGeometry>
        </mxCell>
        <mxCell id="x9gaep2M6UIOER8qvIOI-28" value="Импорт данных" style="ellipse;whiteSpace=wrap;html=1;" parent="1" vertex="1">
          <mxGeometry x="-570" y="520" width="90" height="60" as="geometry" />
        </mxCell>
        <mxCell id="x9gaep2M6UIOER8qvIOI-30" value="Формирование и экспорт отчётов в *.pdf" style="ellipse;whiteSpace=wrap;html=1;" parent="1" vertex="1">
          <mxGeometry x="-450" y="470" width="90" height="60" as="geometry" />
        </mxCell>
        <mxCell id="x9gaep2M6UIOER8qvIOI-31" value="Управление пользователями" style="ellipse;whiteSpace=wrap;html=1;" parent="1" vertex="1">
          <mxGeometry x="-650" y="450" width="90" height="60" as="geometry" />
        </mxCell>
        <mxCell id="x9gaep2M6UIOER8qvIOI-32" value="" style="endArrow=none;html=1;rounded=0;exitX=0;exitY=0;exitDx=0;exitDy=0;" parent="1" source="x9gaep2M6UIOER8qvIOI-30" edge="1">
          <mxGeometry width="50" height="50" relative="1" as="geometry">
            <mxPoint x="330" y="240" as="sourcePoint" />
            <mxPoint x="-480" y="430" as="targetPoint" />
          </mxGeometry>
        </mxCell>
        <mxCell id="x9gaep2M6UIOER8qvIOI-33" value="Выдача прав доступа" style="ellipse;whiteSpace=wrap;html=1;" parent="1" vertex="1">
          <mxGeometry x="-780" y="510" width="90" height="60" as="geometry" />
        </mxCell>
        <mxCell id="x9gaep2M6UIOER8qvIOI-39" value="Авторизация" style="ellipse;whiteSpace=wrap;html=1;" parent="1" vertex="1">
          <mxGeometry x="-230" y="525" width="90" height="60" as="geometry" />
        </mxCell>
        <mxCell id="x9gaep2M6UIOER8qvIOI-47" value="" style="endArrow=none;html=1;rounded=0;exitX=1;exitY=0;exitDx=0;exitDy=0;" parent="1" source="x9gaep2M6UIOER8qvIOI-31" edge="1">
          <mxGeometry width="50" height="50" relative="1" as="geometry">
            <mxPoint x="510" y="280" as="sourcePoint" />
            <mxPoint x="-540" y="430" as="targetPoint" />
          </mxGeometry>
        </mxCell>
        <mxCell id="x9gaep2M6UIOER8qvIOI-49" value="" style="endArrow=classic;html=1;rounded=0;dashed=1;" parent="1" source="x9gaep2M6UIOER8qvIOI-31" target="x9gaep2M6UIOER8qvIOI-56" edge="1">
          <mxGeometry width="50" height="50" relative="1" as="geometry">
            <mxPoint x="290" y="630" as="sourcePoint" />
            <mxPoint x="40" y="500" as="targetPoint" />
          </mxGeometry>
        </mxCell>
        <mxCell id="x9gaep2M6UIOER8qvIOI-50" value="&amp;lt;&amp;lt;include&amp;gt;&amp;gt;" style="edgeLabel;html=1;align=center;verticalAlign=middle;resizable=0;points=[];" parent="x9gaep2M6UIOER8qvIOI-49" vertex="1" connectable="0">
          <mxGeometry x="-0.0346" relative="1" as="geometry">
            <mxPoint as="offset" />
          </mxGeometry>
        </mxCell>
        <mxCell id="x9gaep2M6UIOER8qvIOI-51" value="" style="endArrow=classic;html=1;rounded=0;dashed=1;entryX=1;entryY=0.5;entryDx=0;entryDy=0;" parent="1" source="x9gaep2M6UIOER8qvIOI-31" target="x9gaep2M6UIOER8qvIOI-57" edge="1">
          <mxGeometry width="50" height="50" relative="1" as="geometry">
            <mxPoint x="150" y="450" as="sourcePoint" />
            <mxPoint x="170" y="520" as="targetPoint" />
          </mxGeometry>
        </mxCell>
        <mxCell id="x9gaep2M6UIOER8qvIOI-52" value="&amp;lt;&amp;lt;include&amp;gt;&amp;gt;" style="edgeLabel;html=1;align=center;verticalAlign=middle;resizable=0;points=[];" parent="x9gaep2M6UIOER8qvIOI-51" vertex="1" connectable="0">
          <mxGeometry x="-0.0346" relative="1" as="geometry">
            <mxPoint as="offset" />
          </mxGeometry>
        </mxCell>
        <mxCell id="x9gaep2M6UIOER8qvIOI-56" value="Добавление" style="ellipse;whiteSpace=wrap;html=1;" parent="1" vertex="1">
          <mxGeometry x="-750" y="350" width="90" height="60" as="geometry" />
        </mxCell>
        <mxCell id="x9gaep2M6UIOER8qvIOI-57" value="Удаление" style="ellipse;whiteSpace=wrap;html=1;" parent="1" vertex="1">
          <mxGeometry x="-790" y="430" width="90" height="60" as="geometry" />
        </mxCell>
        <mxCell id="x9gaep2M6UIOER8qvIOI-81" value="Фильтрация" style="ellipse;whiteSpace=wrap;html=1;" parent="1" vertex="1">
          <mxGeometry x="-660" y="140" width="90" height="60" as="geometry" />
        </mxCell>
        <mxCell id="x9gaep2M6UIOER8qvIOI-82" value="" style="endArrow=classic;html=1;rounded=0;dashed=1;" parent="1" source="x9gaep2M6UIOER8qvIOI-10" target="x9gaep2M6UIOER8qvIOI-81" edge="1">
          <mxGeometry width="50" height="50" relative="1" as="geometry">
            <mxPoint x="-657" y="292" as="sourcePoint" />
            <mxPoint x="90" y="40" as="targetPoint" />
          </mxGeometry>
        </mxCell>
        <mxCell id="x9gaep2M6UIOER8qvIOI-83" value="&amp;lt;&amp;lt;include&amp;gt;&amp;gt;" style="edgeLabel;html=1;align=center;verticalAlign=middle;resizable=0;points=[];" parent="x9gaep2M6UIOER8qvIOI-82" vertex="1" connectable="0">
          <mxGeometry x="-0.0346" relative="1" as="geometry">
            <mxPoint as="offset" />
          </mxGeometry>
        </mxCell>
        <mxCell id="5r8EgyAJbc97q1zWka_X-2" value="" style="endArrow=classic;html=1;rounded=0;dashed=1;entryX=0.989;entryY=0.35;entryDx=0;entryDy=0;entryPerimeter=0;exitX=0.044;exitY=0.817;exitDx=0;exitDy=0;exitPerimeter=0;" parent="1" source="x9gaep2M6UIOER8qvIOI-31" target="x9gaep2M6UIOER8qvIOI-33" edge="1">
          <mxGeometry width="50" height="50" relative="1" as="geometry">
            <mxPoint x="-453" y="540" as="sourcePoint" />
            <mxPoint x="-476" y="563" as="targetPoint" />
          </mxGeometry>
        </mxCell>
        <mxCell id="5r8EgyAJbc97q1zWka_X-3" value="&amp;lt;&amp;lt;include&amp;gt;&amp;gt;" style="edgeLabel;html=1;align=center;verticalAlign=middle;resizable=0;points=[];" parent="5r8EgyAJbc97q1zWka_X-2" vertex="1" connectable="0">
          <mxGeometry x="-0.0346" relative="1" as="geometry">
            <mxPoint as="offset" />
          </mxGeometry>
        </mxCell>
        <mxCell id="5r8EgyAJbc97q1zWka_X-5" value="&lt;div&gt;Гость&lt;/div&gt;" style="shape=umlActor;verticalLabelPosition=bottom;verticalAlign=top;html=1;outlineConnect=0;" parent="1" vertex="1">
          <mxGeometry x="-200" y="630" width="30" height="60" as="geometry" />
        </mxCell>
        <mxCell id="5r8EgyAJbc97q1zWka_X-8" value="Инвентаризация" style="ellipse;whiteSpace=wrap;html=1;" parent="1" vertex="1">
          <mxGeometry x="-310" y="380" width="90" height="60" as="geometry" />
        </mxCell>
        <mxCell id="5r8EgyAJbc97q1zWka_X-9" value="" style="endArrow=none;html=1;rounded=0;" parent="1" target="5r8EgyAJbc97q1zWka_X-8" edge="1">
          <mxGeometry width="50" height="50" relative="1" as="geometry">
            <mxPoint x="-500" y="366" as="sourcePoint" />
            <mxPoint x="-446" y="280" as="targetPoint" />
          </mxGeometry>
        </mxCell>
        <mxCell id="5r8EgyAJbc97q1zWka_X-13" value="Фильтровать" style="ellipse;whiteSpace=wrap;html=1;" parent="1" vertex="1">
          <mxGeometry x="-160" y="280" width="90" height="60" as="geometry" />
        </mxCell>
        <mxCell id="5r8EgyAJbc97q1zWka_X-14" value="Добавить инвентарь" style="ellipse;whiteSpace=wrap;html=1;" parent="1" vertex="1">
          <mxGeometry x="-270" y="220" width="90" height="60" as="geometry" />
        </mxCell>
        <mxCell id="5r8EgyAJbc97q1zWka_X-15" value="Удалять" style="ellipse;whiteSpace=wrap;html=1;" parent="1" vertex="1">
          <mxGeometry x="-390" y="220" width="90" height="60" as="geometry" />
        </mxCell>
        <mxCell id="5r8EgyAJbc97q1zWka_X-16" value="" style="endArrow=classic;html=1;rounded=0;dashed=1;exitX=1.044;exitY=0.35;exitDx=0;exitDy=0;exitPerimeter=0;entryX=-0.011;entryY=0.7;entryDx=0;entryDy=0;entryPerimeter=0;" parent="1" source="5r8EgyAJbc97q1zWka_X-8" target="5r8EgyAJbc97q1zWka_X-13" edge="1">
          <mxGeometry width="50" height="50" relative="1" as="geometry">
            <mxPoint x="-574" y="285" as="sourcePoint" />
            <mxPoint x="-540" y="210" as="targetPoint" />
          </mxGeometry>
        </mxCell>
        <mxCell id="5r8EgyAJbc97q1zWka_X-17" value="&amp;lt;&amp;lt;include&amp;gt;&amp;gt;" style="edgeLabel;html=1;align=center;verticalAlign=middle;resizable=0;points=[];" parent="5r8EgyAJbc97q1zWka_X-16" vertex="1" connectable="0">
          <mxGeometry x="-0.0346" relative="1" as="geometry">
            <mxPoint as="offset" />
          </mxGeometry>
        </mxCell>
        <mxCell id="5r8EgyAJbc97q1zWka_X-18" value="" style="endArrow=classic;html=1;rounded=0;dashed=1;exitX=0.667;exitY=0;exitDx=0;exitDy=0;exitPerimeter=0;entryX=0.5;entryY=1;entryDx=0;entryDy=0;" parent="1" source="5r8EgyAJbc97q1zWka_X-8" target="5r8EgyAJbc97q1zWka_X-14" edge="1">
          <mxGeometry width="50" height="50" relative="1" as="geometry">
            <mxPoint x="-564" y="295" as="sourcePoint" />
            <mxPoint x="-550" y="200" as="targetPoint" />
          </mxGeometry>
        </mxCell>
        <mxCell id="5r8EgyAJbc97q1zWka_X-19" value="&amp;lt;&amp;lt;include&amp;gt;&amp;gt;" style="edgeLabel;html=1;align=center;verticalAlign=middle;resizable=0;points=[];" parent="5r8EgyAJbc97q1zWka_X-18" vertex="1" connectable="0">
          <mxGeometry x="-0.0346" relative="1" as="geometry">
            <mxPoint as="offset" />
          </mxGeometry>
        </mxCell>
        <mxCell id="5r8EgyAJbc97q1zWka_X-20" value="" style="endArrow=classic;html=1;rounded=0;dashed=1;exitX=0;exitY=0;exitDx=0;exitDy=0;entryX=0.5;entryY=1;entryDx=0;entryDy=0;" parent="1" source="5r8EgyAJbc97q1zWka_X-8" target="5r8EgyAJbc97q1zWka_X-15" edge="1">
          <mxGeometry width="50" height="50" relative="1" as="geometry">
            <mxPoint x="-554" y="305" as="sourcePoint" />
            <mxPoint x="-540" y="210" as="targetPoint" />
          </mxGeometry>
        </mxCell>
        <mxCell id="5r8EgyAJbc97q1zWka_X-21" value="&amp;lt;&amp;lt;include&amp;gt;&amp;gt;" style="edgeLabel;html=1;align=center;verticalAlign=middle;resizable=0;points=[];" parent="5r8EgyAJbc97q1zWka_X-20" vertex="1" connectable="0">
          <mxGeometry x="-0.0346" relative="1" as="geometry">
            <mxPoint as="offset" />
          </mxGeometry>
        </mxCell>
        <mxCell id="5r8EgyAJbc97q1zWka_X-24" value="" style="endArrow=none;html=1;rounded=0;" parent="1" source="5r8EgyAJbc97q1zWka_X-5" target="x9gaep2M6UIOER8qvIOI-39" edge="1">
          <mxGeometry width="50" height="50" relative="1" as="geometry">
            <mxPoint x="50" y="590" as="sourcePoint" />
            <mxPoint x="154" y="290" as="targetPoint" />
          </mxGeometry>
        </mxCell>
        <mxCell id="5r8EgyAJbc97q1zWka_X-33" value="" style="endArrow=none;html=1;rounded=0;" parent="1" source="x9gaep2M6UIOER8qvIOI-30" edge="1">
          <mxGeometry width="50" height="50" relative="1" as="geometry">
            <mxPoint x="-280" y="410" as="sourcePoint" />
            <mxPoint x="-400" y="620" as="targetPoint" />
          </mxGeometry>
        </mxCell>
        <mxCell id="5r8EgyAJbc97q1zWka_X-34" value="" style="endArrow=none;html=1;rounded=0;" parent="1" target="x9gaep2M6UIOER8qvIOI-28" edge="1">
          <mxGeometry width="50" height="50" relative="1" as="geometry">
            <mxPoint x="-420" y="630" as="sourcePoint" />
            <mxPoint x="-230" y="360" as="targetPoint" />
          </mxGeometry>
        </mxCell>
        <mxCell id="5r8EgyAJbc97q1zWka_X-35" value="" style="endArrow=classic;html=1;rounded=0;" parent="1" source="x9gaep2M6UIOER8qvIOI-5" target="5r8EgyAJbc97q1zWka_X-5" edge="1">
          <mxGeometry width="50" height="50" relative="1" as="geometry">
            <mxPoint x="-250" y="680" as="sourcePoint" />
            <mxPoint x="-180" y="600" as="targetPoint" />
          </mxGeometry>
        </mxCell>
        <mxCell id="5r8EgyAJbc97q1zWka_X-36" value="" style="endArrow=none;html=1;rounded=0;entryX=0.433;entryY=1.033;entryDx=0;entryDy=0;entryPerimeter=0;" parent="1" source="x9gaep2M6UIOER8qvIOI-5" target="5r8EgyAJbc97q1zWka_X-8" edge="1">
          <mxGeometry width="50" height="50" relative="1" as="geometry">
            <mxPoint x="-270" y="630" as="sourcePoint" />
            <mxPoint x="-230" y="360" as="targetPoint" />
          </mxGeometry>
        </mxCell>
        <mxCell id="5r8EgyAJbc97q1zWka_X-39" value="" style="endArrow=none;html=1;rounded=0;" parent="1" target="5r8EgyAJbc97q1zWka_X-41" edge="1">
          <mxGeometry width="50" height="50" relative="1" as="geometry">
            <mxPoint x="-520" y="345" as="sourcePoint" />
            <mxPoint x="-470" y="220" as="targetPoint" />
          </mxGeometry>
        </mxCell>
        <mxCell id="5r8EgyAJbc97q1zWka_X-41" value="Авторизация" style="ellipse;whiteSpace=wrap;html=1;" parent="1" vertex="1">
          <mxGeometry x="-530" y="250" width="90" height="60" as="geometry" />
        </mxCell>
        <mxCell id="_dcszvavEO-1Gpq3kOb1-3" value="Просмотр данные инвентаря" style="ellipse;whiteSpace=wrap;html=1;" vertex="1" parent="1">
          <mxGeometry x="-100" y="630" width="90" height="60" as="geometry" />
        </mxCell>
        <mxCell id="_dcszvavEO-1Gpq3kOb1-4" value="" style="endArrow=none;html=1;rounded=0;entryX=0;entryY=0.5;entryDx=0;entryDy=0;" edge="1" parent="1" source="5r8EgyAJbc97q1zWka_X-5" target="_dcszvavEO-1Gpq3kOb1-3">
          <mxGeometry width="50" height="50" relative="1" as="geometry">
            <mxPoint x="-290" y="520" as="sourcePoint" />
            <mxPoint x="-390" y="410" as="targetPoint" />
          </mxGeometry>
        </mxCell>
      </root>
    </mxGraphModel>
  </diagram>
</mxfile>
